<svg id="Layer_1" data-name="Layer 1" xmlns="http://www.w3.org/2000/svg" viewBox="0 0 164.31 126.5"><defs><style>.cls-1{fill:#fff;}</style></defs><title>the-godfather-logo</title><path class="cls-1" d="M180,56.3l-16.9-2.7c-.3-1.8-1.2-5.7-1.6-8-.3-2.1-.6-5.6-.9-7.8l8.4-8.4-9.2-3.2-3.9,3.6c-2.5-4.7-1.7-16.1-1.6-18.7h-4.1c-.1,1.2-.4,11.8.3,15.1,1.2,5.5,5,7.7,6.7,11.3a30,30,0,0,1,2.6,8,27.89,27.89,0,0,1,.1,7.6L146,50.8,142.7,52l-.3,8.2,6.8,1.1a33.27,33.27,0,0,1-6,6.8c-1.8,1.6-5,2.4-5.5,2.2a43.49,43.49,0,0,1-5-5.6,4.2,4.2,0,0,1-.4-2.7,64.83,64.83,0,0,1,2.2-12.8,3,3,0,0,0-1-.5,38.33,38.33,0,0,1-3.7,5.7c-.8.9-5.6,5.2-8.6,7.9-1.4-.6-1.5-1.4-1.1-2.6a44,44,0,0,1,2.7-5.1c1.8-3.1,4.5-7.1,4.7-7.5a3.34,3.34,0,0,0-1.2-.5,41.35,41.35,0,0,0-5.1,6.6c-.9,1.4-3.6,6.2-3.8,6.7-.9,0-1-1.4-.8-2.5A127.58,127.58,0,0,1,119.8,45l-1.2-.3c-.9,2-3.5,10.7-4.3,13.8a8.17,8.17,0,0,1-2-1.2c-.4-.4-.4-.8-.3-1.5s1.4-10.6,2.3-12.2,4.3-4.8,7.5-8.4,6.1-7.3,6.9-8.2a2.4,2.4,0,0,0,.4-1.6c0-2.8-1-13.3-1.2-14.1h-3.2c.1,1.7,1.6,9,1.8,10.9a6.67,6.67,0,0,1-.3,3.1,24.9,24.9,0,0,1-5.5,8.4c-2.4,2.4-6.9,5.5-7.8,6.3a9.5,9.5,0,0,0-2.4,3.7c-.3.9-.5,2.6-.8,3.2-2.3.1-9.6-1.1-10.5-1.1-.9,1-5.6,7.2-6.2,7.6.8.1,15.6,2.2,16.6,2.5,0,2.6,1.6,4.5,4.6,4.8a36.92,36.92,0,0,0,5,3.5c-3.8,3.5-13.4,12.6-13.4,12.6.7.2,10.5,2.2,10.5,2.2.9-.7,12.5-11.6,13.5-12.6,1,1,6,5.1,7.1,5.8.5.3,1.2,1,1.8,1a13.72,13.72,0,0,0,4.6-1.4h.1a16.25,16.25,0,0,0,1.7,2.7,1.77,1.77,0,0,0,1.6.3c1.8-.7,4.8-3.3,7-4.8a84.68,84.68,0,0,0,8.4-6.4l12.2,2,5.7-9.3Zm-37.7,75v-25a5.22,5.22,0,0,0-4.7-5.4h-4.9c-.3,0-.6-.1-.6-.7V83.1h-.5l-.5.5V69c-.5-.5-1-.8-1.2-1V84.8l-5.7,5v11.3h-3.5c-.3,0-.6-.1-.6-.7V83.3h-.4l-4.8,4.3V80.3a10.38,10.38,0,0,0-1.2-.3v8.6l-1.3,1.2v45.5h9.4v-.5c-.5-.1-1.6-2-1.8-3.5V108.1a.53.53,0,0,1,.6-.6h1.6c.1,0,.3.1.4-.4s.9-2.4,1.5-3.9v32.1h9.6v-.5c-.5-.1-1.5-2-1.7-3.5V108.1a.53.53,0,0,1,.6-.6h1.5a.56.56,0,0,1,.5.6v27.2h9.7v-.5c-.4-.3-2-1.9-2-3.5Zm38.6-30.4h-3.7V63.5L176,65.4v35.5h-.4a18.86,18.86,0,0,1-2,2c-.3.3-.6.4-.6-.1v-2h-6.3V65.7l-1.2-.2v35.3H165V135h9.7v-.5a4.61,4.61,0,0,1-1.7-3.6c0-.3.1-8.8.1-20.4.6-.7,1.2-1.2,1.7-1.7s.8-.3.8.2v8.9l6.9-7.3v-8a1.49,1.49,0,0,0-1.6-1.7Zm-18.3,24.2a4.27,4.27,0,0,1-4.5,3.2h-4.7c-.3,0-.9-.3-.9-.8v-2.6c1.2-1.2,8.8-9,9.2-9.6a5.39,5.39,0,0,0,1.1-3.2v-8.9c0-1.7-1.1-2.3-2.6-2.3h-9.9c-.7,0-1.3.1-1.8.1V75.3c-.5.3-.9.5-1.2.7v25.3c-1.6.7-2.5,2.2-2.5,5V131c0,2,1.5,4.1,3.6,4.1h12c.9,0,2.6-.4,2.6-1.6v-8.4Zm-10.1-17c0-.8.3-1,.7-1h1c.6,0,.7.1.7.7v4.4a4.29,4.29,0,0,1-.6,2.2,11.28,11.28,0,0,1-1.9,1.9c.1-.1.1-7.1.1-8.2Zm-93.1-2.2v24.3c0,2.9-1.7,4.9-5.6,4.9H47.3c-3.8,0-5.6-2-5.6-4.9V105.9c0-2.9,1.8-5,5.6-5h6.5c3.9,0,5.6,2,5.6,5Zm-7.5,2.2c0-.5-.2-.7-.6-.7H49.9a.63.63,0,0,0-.7.7V128a.63.63,0,0,0,.7.7h1.4c.4,0,.6-.3.6-.7V108.1Zm5.3-24.3v.3l-7.1,8H28.5a1.6,1.6,0,0,0-1.7,1.8v32.4c0,.5.1.9.7.9h2.9c.3,0,.9-.1.9-.7V104.3c0-.9-1-2.9-2.2-2.9v-.5h9.5c.6,0,.7.3.7.9v35.8h-.4a3.14,3.14,0,0,0-3.5-2.4H25.3c-1.5,0-7.1-1.8-7.1-6.5V91.8c0-5.4,2.7-7.9,7.8-7.9,2.4-.1,29.5-.1,31.2-.1Zm44.4,35.1-1.6,1.6a1.39,1.39,0,0,0-.5,1v6.6c0,.4.2.6.5.6h1.6a.53.53,0,0,0,.6-.6V119c0-.4-.3-.5-.6-.1Zm-9.7,11.3v-8.1a7.26,7.26,0,0,1,1-3.7c1-1.2,8.9-8.2,9.3-8.6v-1.5a.86.86,0,0,0-.8-.9H97.5a5,5,0,0,0-4,2.4H93c.5-1.1,2.1-5.3,2.4-6,.5-1.5,2.1-2.9,4.8-2.9h5.9c2.1,0,3.9,2.6,3.9,4.3v26.1a7.13,7.13,0,0,0,1,3.3v.5h-6.9c-.5-.2-1.7-2.9-1.8-3.3s-.3-.5-.5-.2-1.3,3.1-1.9,3.5H96.2c-2.6,0-4.3-2.4-4.3-4.9ZM69.4,90.4l9.3-8.2H79v46.5c0,2.3,0,4.8,1.8,6v.5H73.7a12.06,12.06,0,0,1-1.8-3.1c-.3-.9-.3-.3-.5-.1s-1.4,2.4-1.6,2.7-.5.6-.9.6H66.5c-3.1,0-4.9-2.4-4.9-6.5V106.4c0-4.1,3.2-5.4,4.5-5.4H71c.3,0,.6-.1.6-.7V93.2c0-1.6-.8-2.4-2.2-2.4v-.4Zm1.6,17H69.5a.56.56,0,0,0-.5.6v20c0,.4.2.6.5.6H71a.53.53,0,0,0,.6-.6V108a.53.53,0,0,0-.6-.6ZM69.3,60.8A11.45,11.45,0,0,1,67.1,63V55.5c0-.4.2-.7.6-.7h1.6c.2,0,.5.2.5.7v3.6a2.38,2.38,0,0,1-.5,1.7Zm5.6-12.5H65.1c-3.8,0-5.5,1.9-5.5,4.8V78c0,2,1.4,4.1,3.5,4.1H74.9c.9,0,2.6-.4,2.6-1.6V72.1h-.3a4.36,4.36,0,0,1-4.5,3.2H68.1c-.3,0-.9-.4-.9-.8V71.9c1.2-1.2,8.7-9,9.1-9.5a4.71,4.71,0,0,0,1.2-3.1V50.5c-.1-1.7-1.2-2.2-2.6-2.2ZM92.2,98.2c.5-.5,6.9-6.6,6.9-6.6V88.3c0-2.6-1.2-4.1-3.5-4.5V55.3H94.4V83.6H86.6c-2.4,0-5,1.2-5,5.2,0,16.2.1,46.4.1,46.4h8.7v-.5a4.51,4.51,0,0,1-1.3-3.6V107.9c0-.2.1-.5.4-.5h2.4c.3,0,.5-.1.7-.5s2.1-5.3,2.2-5.5c.2-.4.1-.5-.4-.5H89.6c-.3,0-.5-.1-.5-.6V90.6c0-.4.2-.5.5-.5h1.7c.3,0,.5.1.5.5v7.5l.4.1ZM57.1,78.1V53.2c0-2.9-1.7-4.8-5.5-4.8H46.8V31.5H18.2V42.4h.3c.5-2.3,2.7-4.3,4.7-4.3.8,0,2.8.1,2.8.1V78.1A4.14,4.14,0,0,1,23.3,82v.3h12V82c-.7-.3-1.9-1.3-1.9-3.9v-40h2.7a3.16,3.16,0,0,1,3.1,3.1v41H48v-.3a4.83,4.83,0,0,1-1.3-3.7V55.6c0-.5.2-.7.5-.7h1.6c.4,0,.6.3.6.7V82.2h9v-.3a6,6,0,0,1-1.3-3.8Zm89.4-5.6a6.71,6.71,0,0,1-.3-2.9c2.2-1.2,4-1.2,4.9.5a36,36,0,0,1-3.9,2.7c-.2.2-.6.2-.7-.3Zm6.4-3.9a3.25,3.25,0,0,0-2.8-1.5,8.79,8.79,0,0,0-3.6,1,35,35,0,0,1,3.9-6.5l7.9,1.2a23.61,23.61,0,0,1-5.4,5.8Z" transform="translate(-18.2 -11.1)"/></svg>