<?xml version="1.0" encoding="UTF-8"?>
<svg width="132px" height="28px" viewBox="0 0 132 28" version="1.1" xmlns="http://www.w3.org/2000/svg" xmlns:xlink="http://www.w3.org/1999/xlink">
    <!-- Generator: Sketch 57.1 (83088) - https://sketch.com -->
    <title>vanhack-logo</title>
    <desc>Created with Sketch.</desc>
    <g id="Page-1" stroke="none" stroke-width="1" fill="none" fill-rule="evenodd">
        <g id="Artboard" transform="translate(-54.000000, -101.000000)">
            <g id="vh-/-brand-/-vanhack-logo-/-main" transform="translate(54.000000, 101.000000)">
                <g id="VanHack-logo">
                    <path d="M118.96839,10.8885207 C119.300046,11.0260355 119.376327,11.1768047 119.235373,11.5181065 C118.988289,12.1112426 118.779346,12.7209467 118.585327,13.3405917 C118.482514,13.6719527 118.34156,13.7315976 118.019853,13.6073373 C117.180647,13.3038657 116.28611,13.1835327 115.396453,13.2544379 C113.960382,13.3256805 113.035061,14.1739645 112.809535,15.5822485 C112.70042,16.3059967 112.706576,17.0424341 112.827776,17.7642604 C113.005212,18.904142 113.683449,19.5370414 114.875753,19.7375148 C116.015366,19.903125 117.17582,19.856501 118.298444,19.6 C118.65,19.5287574 118.751155,19.6 118.795929,19.9495858 C118.885476,20.6040237 119.004872,21.2534911 119.149143,21.8979882 C119.217132,22.1995266 119.175675,22.3138462 118.850652,22.3950296 C116.898226,22.8783032 114.858695,22.8902296 112.90074,22.4298225 C110.600704,21.8946746 109.318853,20.3770414 109.055187,17.9995266 C108.925841,16.8397633 108.889358,15.68 109.221015,14.5301775 C109.884327,12.1360947 111.948887,10.5107692 114.559021,10.3301775 C114.923843,10.3053254 115.290323,10.3301775 115.655145,10.3301775 L115.651828,10.3169231 C116.786443,10.2534614 117.920628,10.448934 118.96839,10.8885207 Z M123.573436,6.01420118 C123.96479,6.00260355 124.021172,6.15337278 124.019514,6.49467456 C124.006247,9.10745562 124.019514,11.7202367 124.019514,14.3330178 L124.019514,14.9957396 C124.565088,14.271716 125.014482,13.6702959 125.473826,13.0655621 C126.016637,12.3409862 126.558894,11.6153057 127.1006,10.8885207 C127.203413,10.7510059 127.289644,10.5985799 127.503562,10.6002367 L131.25791,10.6002367 L128.992698,13.448284 C128.384109,14.2104142 127.782153,14.9791716 127.168589,15.7313609 C126.97457,15.968284 126.924822,16.1323077 127.168589,16.3940828 C127.81366,17.0783432 128.423908,17.7957396 129.052396,18.4949112 C129.76214,19.2852071 130.684145,19.7209467 131.670822,20.0456805 L131.670822,20.567574 L131.659214,20.5609467 C131.417105,21.0894675 131.415447,21.6660355 131.342482,22.2177515 C131.291075,22.6071006 131.176654,22.7711243 130.733893,22.7462722 C128.743956,22.6369231 127.142057,21.8830769 125.982918,20.2229586 C125.397545,19.3846154 124.739208,18.5976331 124.019514,17.6631953 L124.019514,18.3424852 C124.019514,19.5801183 124.007906,20.8160947 124.019514,22.0537278 C124.019514,22.3850888 123.933283,22.5159763 123.585044,22.5076923 C122.644799,22.4894675 121.701237,22.4911243 120.765966,22.5076923 C120.459184,22.5076923 120.341447,22.4347929 120.341447,22.1017751 C120.350291,16.876213 120.350291,11.6500986 120.341447,6.42343195 C120.341447,6.09207101 120.43431,6.00757396 120.754358,6.01420118 C121.694604,6.03408284 122.638166,6.04071006 123.573436,6.01420118 Z M63.344673,10.5820118 C65.0029539,10.979645 65.7856625,12.031716 65.8320943,13.7498225 C65.8464661,14.341854 65.8416755,14.9338856 65.8368849,15.5264081 L65.8320943,16.4156213 L65.8337526,16.4239053 C65.8337526,17.2771598 65.8636017,18.132071 65.8221447,18.9853254 C65.7972704,19.5171598 65.9979224,19.7921893 66.508673,19.803787 C66.8403291,19.803787 66.9099769,19.947929 66.8884193,20.2478107 C66.8386709,20.923787 66.8121384,21.6030769 66.7856059,22.2823669 C66.7856059,22.459645 66.7474654,22.5855621 66.5335472,22.5921893 C65.4158658,22.6286391 64.2981845,22.6435503 63.2667338,22.111716 C63.0884809,22.0384158 62.9364902,21.9131207 62.8306059,21.7521893 C62.6183459,21.2982249 62.406086,21.4771598 62.1225199,21.6726627 C60.7437049,22.6745561 58.9706945,22.9629287 57.3450126,22.4497041 C55.9139161,22.0288757 55.1245744,21 55.0350273,19.5039053 C54.9305556,17.7592899 55.5325115,16.6508876 56.9486834,16.0246154 C57.8740042,15.603787 58.8689727,15.4927811 59.8639413,15.4579882 C60.5438365,15.4331361 61.2237317,15.4397633 61.9036268,15.4579882 C62.1755849,15.4579882 62.2568407,15.3701775 62.2684486,15.0984615 C62.3065891,13.9983432 61.9666415,13.5857988 60.8589099,13.4201183 C59.5190189,13.2328994 58.2205849,13.5195266 56.9287841,13.7995266 C56.5722537,13.8773964 56.4312998,13.8326627 56.3533606,13.4681657 C56.2057736,12.8253254 56.0217044,12.1907692 55.8310021,11.556213 C55.7613543,11.3226036 55.8144193,11.2115976 56.0482369,11.1271006 C58.42787,10.2556213 60.8572516,9.99218935 63.344673,10.5820118 Z M104.405367,10.5173964 C106.169778,10.8686391 107.038717,11.9240237 107.083491,13.728284 C107.105048,14.5815385 107.083491,15.4347929 107.083491,16.2880473 L107.09344,16.2880473 L107.09344,16.2979882 C107.09344,17.1860355 107.121631,18.0757396 107.083491,18.9604734 C107.058616,19.515503 107.279168,19.7888757 107.811476,19.8054438 C108.156398,19.8054438 108.191222,19.9446154 108.16469,20.2544379 C108.10665,20.8939645 108.100017,21.5401183 108.083434,22.1846154 C108.083434,22.4546746 107.978962,22.6004734 107.685447,22.6071006 C106.760126,22.6253254 105.83978,22.6071006 104.950941,22.3055621 C104.599386,22.1895858 104.242855,22.0205917 104.068736,21.6892308 C103.8714,21.3131361 103.700597,21.4622485 103.47673,21.6213018 C102.005834,22.6584615 100.39896,22.9583432 98.6677149,22.4497041 C97.210086,22.0272189 96.3975283,20.9966864 96.2996897,19.4906509 C96.1802935,17.7791716 96.8436059,16.6177515 98.2763606,15.9964497 C99.2862537,15.5607101 100.36082,15.4712426 101.445335,15.4530178 C102.002518,15.4430769 102.561358,15.4314793 103.118541,15.4530178 C103.450197,15.4695858 103.519845,15.3436686 103.523161,15.035503 C103.523161,13.9204734 103.259495,13.5791716 102.138497,13.4201183 C100.801922,13.2295858 99.5034885,13.5211834 98.2116876,13.7978698 C97.8634486,13.872426 97.7142034,13.8409467 97.6346059,13.4665089 C97.4969686,12.8402367 97.3029497,12.2239053 97.1271719,11.6059172 C97.0525493,11.352426 97.0674738,11.2198817 97.3676226,11.1088757 C99.6124927,10.2601427 102.050131,10.0552741 104.405367,10.5173964 Z M42.4735493,7.05633136 C42.8184717,7.05633136 42.9527925,7.16899408 43.0473145,7.48544379 C44.1926338,11.2983037 45.3462446,15.1089546 46.5081468,18.9173964 C46.5727505,19.1325507 46.645628,19.3443984 46.7548796,19.6784532 C47.1101027,18.7119527 47.4284927,17.8570414 47.7402495,16.9872189 C48.8723026,13.8470217 50.0004864,10.7051677 51.1248008,7.5616568 C51.2541468,7.20047337 51.4133417,7.04142012 51.8229371,7.06461538 C52.7449413,7.09940828 53.6702621,7.09443787 54.5939245,7.06461538 C55.0400021,7.05136095 55.1129665,7.14579882 54.9438218,7.57159763 C53.5956394,10.9647337 52.270673,14.364497 50.9390734,17.767574 C50.3868658,19.175858 49.8280252,20.584142 49.2940587,21.9973964 C49.1547631,22.3685207 48.9839602,22.5424852 48.5478323,22.5292308 C47.2941719,22.4944379 46.037195,22.4994083 44.7835346,22.5292308 C44.3772558,22.5375148 44.2164025,22.3950296 44.0903732,22.0222485 C42.4564137,17.2164103 40.8119518,12.4116765 39.1569874,7.60804734 C39.107239,7.46224852 39.0326164,7.32473373 38.9696017,7.18390533 L38.9696017,7.07952663 C40.1303983,7.07621302 41.3061195,7.07621302 42.4735493,7.05633136 Z M76.809914,10.376568 C78.5013606,10.6979882 79.2790943,11.6191716 79.4449224,13.3372781 C79.5759266,14.6925444 79.5162285,16.0511243 79.5278365,17.4080473 C79.5394444,18.9389349 79.5178868,20.4731361 79.5394444,22.0040237 C79.5394444,22.3801183 79.459847,22.5308876 79.0519099,22.5176331 C78.1464885,22.4894675 77.2394088,22.4927811 76.3339874,22.5176331 C75.9708239,22.527574 75.8613774,22.4198817 75.8630356,22.052071 C75.8796184,19.8584615 75.8630356,17.6648521 75.871327,15.4712426 C75.8807038,15.1058403 75.8518031,14.7404601 75.7850964,14.3810651 C75.652434,13.7547929 75.3638931,13.4946746 74.713847,13.4466272 C73.8251527,13.3883128 72.934126,13.5175857 72.0987379,13.8260355 C71.7206499,13.9585799 71.5664298,14.1325444 71.5714046,14.5666272 C71.5979371,17.0385799 71.5714046,19.5105325 71.5929623,21.984142 C71.5929623,22.3817751 71.5050734,22.5342012 71.0788952,22.5209467 C70.1734738,22.4911243 69.2663941,22.5010651 68.3609727,22.5209467 C68.0409245,22.5209467 67.9049455,22.4613018 67.9049455,22.0918343 C67.9193173,18.3839053 67.9193173,14.6754241 67.9049455,10.9663905 C67.9049455,10.6350296 68.014392,10.5521893 68.3261488,10.5571598 C69.2315702,10.5737278 70.1386499,10.5869822 71.0440713,10.5571598 C71.4835157,10.5405917 71.6410524,10.6731361 71.5896457,11.1072189 C71.5437943,11.3014274 71.5636206,11.5053404 71.6460273,11.6871006 L71.6559769,11.6771598 C72.0523061,11.4485207 72.4337107,11.2182249 72.8167736,11.004497 C74.0298012,10.3247317 75.4465397,10.1019469 76.809914,10.376568 Z M94.4291488,7.04473373 C94.7143732,7.04473373 94.8221614,7.11100592 94.8221614,7.4191716 C94.8133173,12.3133728 94.8133173,17.2081262 94.8221614,22.103432 C94.8221614,22.4497041 94.6861824,22.5027219 94.3910084,22.4994083 C93.432522,22.4861538 92.4740356,22.4795266 91.513891,22.4994083 C91.1308281,22.5093491 91.0528889,22.3585799 91.0562055,22.0023669 C91.07113,20.2080473 91.0562055,18.4137278 91.07113,16.6194083 C91.07113,16.2350296 90.9799245,16.1223669 90.5736457,16.1223669 C88.6942607,16.1444576 86.811559,16.1444576 84.9255409,16.1223669 C84.554086,16.1223669 84.4579057,16.2366864 84.4612222,16.596213 C84.477805,18.3739645 84.4496143,20.1500592 84.4811216,21.9261538 C84.489413,22.4066272 84.3368512,22.5110059 83.8907736,22.4927811 C83.0201761,22.4579882 82.1462621,22.4530178 81.2756646,22.4927811 C80.7781803,22.5176331 80.7068742,22.3271006 80.7118491,21.8913609 C80.7300901,19.5039053 80.7201405,17.1181065 80.7201405,14.7323077 L80.7383816,14.7588166 C80.7383816,12.3547929 80.7483312,9.95408284 80.7300901,7.54674556 C80.7300901,7.15076923 80.841195,7.04970414 81.2275744,7.04970414 C82.1678197,7.07786982 83.1097233,7.07289941 84.046652,7.04970414 C84.3915744,7.04970414 84.489413,7.14911243 84.4860964,7.4904142 C84.4711719,9.24994083 84.4977044,11.0094675 84.4661971,12.7689941 C84.4579057,13.2478107 84.6088092,13.3422485 85.0548868,13.3356213 C86.8789958,13.3107692 88.7163711,13.3140828 90.5471132,13.3356213 C90.9500755,13.3356213 91.0827379,13.2428402 91.0761048,12.820355 C91.0512306,11.0608284 91.0761048,9.30130178 91.0562055,7.54177515 C91.0562055,7.14579882 91.1639937,7.04473373 91.5536897,7.04473373 C92.5121761,7.07289941 93.4706625,7.06295858 94.4291488,7.04473373 Z M62.0296562,17.6168047 C61.1507673,17.6698225 60.251979,17.5140828 59.3929895,17.8156213 C58.8026415,18.0227219 58.5356583,18.4402367 58.6019895,19.0035503 C58.6550545,19.464142 59.0480671,19.7872189 59.6433899,19.8468639 C60.2168665,19.8847611 60.792688,19.8287972 61.3481027,19.6811834 C62.2568407,19.4707692 62.2568407,19.472426 62.2551824,18.564497 C62.2551824,18.3375148 62.2535241,18.1121893 62.2551824,17.8934911 C62.2551824,17.7377515 62.2170419,17.6052071 62.0296562,17.6168047 Z M102.063874,17.6284024 C101.616611,17.6061036 101.168672,17.6558925 100.737249,17.775858 L100.735591,17.775858 C100.123686,17.9779882 99.7936876,18.4286391 99.8567023,18.9704142 C99.9147421,19.4674556 100.342579,19.7988166 100.989308,19.8468639 C101.636038,19.8949112 102.264526,19.744142 102.89799,19.6281657 C103.36065,19.5436686 103.55301,19.3746746 103.531453,18.8544379 C103.481704,17.6068639 103.516528,17.6068639 102.063874,17.6284024 Z" id="VanHack" fill="#21AAEB" fill-rule="nonzero"></path>
                    <g id="icon" transform="translate(0.000000, 0.000000)" fill-rule="nonzero">
                        <path d="M2.71626415,6.94532544 L7.31301887,15.9417751 C7.47884696,15.3734911 7.62477568,14.9228402 7.75743816,14.4688757 C9.13602236,9.79337278 10.5107372,5.11952663 11.8815828,0.447337278 C11.9860545,0.0878106509 12.1352998,0 12.4934885,0 C14.4834256,0.0182248521 16.4833124,0.00828402367 18.4782243,0.00828402367 L18.9491761,0.00828402367 C18.5926457,1.22272189 18.2510398,2.39242604 17.9061174,3.56047337 C15.5646247,11.494359 13.2264486,19.4287968 10.8915891,27.363787 C10.767218,27.7895858 10.6013899,27.9188166 10.1602872,27.9105325 C8.48044864,27.8807101 6.79895178,27.8906509 5.11745493,27.9105325 C4.8679875,27.9427562 4.63147156,27.7910453 4.55695597,27.5510059 C3.12972886,24.36 1.69255206,21.17286 0.245425577,17.9895858 C0.159521443,17.8243779 0.136541448,17.6336371 0.180752621,17.4527811 C1.02813417,13.991716 1.85561635,10.5339645 2.71626415,6.94532544" id="path18" fill="#21AAEB"></path>
                        <path d="M34.3363648,0.0546745562 C34.0212914,1.13325444 33.7111929,2.20852071 33.3928029,3.2904142 C31.0148281,11.3413807 28.6379588,19.3928994 26.262195,27.4449704 C26.1610398,27.7912426 26.0250608,27.9072189 25.6569224,27.9039053 C23.5989958,27.8840237 21.5410692,27.8939645 19.4831426,27.8939645 C19.4068616,27.8939645 19.3289224,27.8823669 19.1995765,27.8740828 C19.5013836,26.8468639 19.7965577,25.844497 20.0917317,24.8421302 C20.7633354,22.5590533 21.4283061,20.2726627 22.1164927,17.9945562 C22.2342306,17.6068639 22.1662411,17.5091124 21.7632788,17.512426 C19.9889182,17.5289941 18.2128994,17.512426 16.4385388,17.512426 C15.8166834,17.512426 15.8117086,17.512426 15.9758784,16.8927811 C16.4733627,15.0321893 16.9791384,13.1732544 17.4683312,11.3093491 C17.5545618,10.9779882 17.697174,10.8553846 18.0437547,10.860355 C19.9275618,10.8901775 21.811369,10.8852071 23.6951761,10.9249704 C24.1080881,10.9332544 24.2573333,10.784142 24.3584885,10.4097041 C25.3302411,7.05467456 26.3218931,3.70627219 27.3069119,0.356213018 C27.3666101,0.15408284 27.4196751,-0.00165680473 27.7032411,5.66542391e-15 C29.8755891,0.0165680473 32.0429623,0.0132544379 34.2103354,0.0165680473 C34.2535856,0.0247414711 34.2958361,0.0375163972 34.3363648,0.0546745562" id="path20" fill="#46C1F1"></path>
                    </g>
                </g>
            </g>
        </g>
    </g>
</svg>